<?xml version="1.0" encoding="UTF-8" standalone="no"?>
<!-- Created with Inkscape (http://www.inkscape.org/) -->

<svg
   xmlns:dc="http://purl.org/dc/elements/1.1/"
   xmlns:cc="http://creativecommons.org/ns#"
   xmlns:rdf="http://www.w3.org/1999/02/22-rdf-syntax-ns#"
   xmlns:svg="http://www.w3.org/2000/svg"
   xmlns="http://www.w3.org/2000/svg"
   xmlns:sodipodi="http://sodipodi.sourceforge.net/DTD/sodipodi-0.dtd"
   xmlns:inkscape="http://www.inkscape.org/namespaces/inkscape"
   width="219.36734"
   height="63.874756"
   viewBox="0 0 219.36734 63.874756"
   id="svg2"
   version="1.1"
   inkscape:version="0.91 r13725"
   sodipodi:docname="epigenome_switchboard_logo.svg">
  <defs
     id="defs4">
    <inkscape:path-effect
       effect="spiro"
       id="path-effect4213"
       is_visible="true" />
    <inkscape:path-effect
       effect="spiro"
       id="path-effect4209"
       is_visible="true" />
    <inkscape:path-effect
       is_visible="true"
       id="path-effect4205"
       effect="spiro" />
    <inkscape:path-effect
       effect="spiro"
       id="path-effect4201"
       is_visible="true" />
    <inkscape:path-effect
       effect="spiro"
       id="path-effect4837"
       is_visible="true" />
    <inkscape:path-effect
       effect="spiro"
       id="path-effect4601"
       is_visible="true" />
    <inkscape:path-effect
       effect="spiro"
       id="path-effect4457"
       is_visible="true" />
    <inkscape:path-effect
       is_visible="true"
       id="path-effect4316"
       effect="spiro" />
    <inkscape:path-effect
       effect="spiro"
       id="path-effect4163"
       is_visible="true" />
  </defs>
  <sodipodi:namedview
     id="base"
     pagecolor="#ffffff"
     bordercolor="#666666"
     borderopacity="1.0"
     inkscape:pageopacity="0.0"
     inkscape:pageshadow="2"
     inkscape:zoom="1.4"
     inkscape:cx="157.18865"
     inkscape:cy="98.539239"
     inkscape:document-units="px"
     inkscape:current-layer="layer1"
     showgrid="false"
     fit-margin-top="2"
     fit-margin-left="2"
     fit-margin-right="2"
     fit-margin-bottom="2"
     units="px" />
  <metadata
     id="metadata7">
    <rdf:RDF>
      <cc:Work
         rdf:about="">
        <dc:format>image/svg+xml</dc:format>
        <dc:type
           rdf:resource="http://purl.org/dc/dcmitype/StillImage" />
        <dc:title></dc:title>
      </cc:Work>
    </rdf:RDF>
  </metadata>
  <g
     inkscape:label="Layer 1"
     inkscape:groupmode="layer"
     id="layer1"
     transform="translate(-320.7151,-197.74976)">
    <g
       style="color:#000000;font-style:normal;font-variant:normal;font-weight:normal;font-stretch:normal;font-size:32.5px;line-height:80.00000119%;font-family:Arial;-inkscape-font-specification:'Arial, Normal';text-indent:0;text-align:center;text-decoration:none;text-decoration-line:none;text-decoration-style:solid;text-decoration-color:#000000;letter-spacing:0px;word-spacing:0px;text-transform:none;direction:ltr;block-progression:tb;writing-mode:lr-tb;baseline-shift:baseline;text-anchor:middle;white-space:normal;clip-rule:nonzero;display:inline;overflow:visible;visibility:visible;opacity:1;isolation:auto;mix-blend-mode:normal;color-interpolation:sRGB;color-interpolation-filters:linearRGB;solid-color:#000000;solid-opacity:1;fill:#000000;fill-opacity:1;fill-rule:nonzero;stroke:none;stroke-width:1px;stroke-linecap:butt;stroke-linejoin:miter;stroke-miterlimit:4;stroke-dasharray:none;stroke-dashoffset:0;stroke-opacity:1;marker:none;color-rendering:auto;image-rendering:auto;shape-rendering:auto;text-rendering:auto;enable-background:accumulate"
       id="text4140">
      <path
         d="m 391.03721,225.66632 q -4.875,0 -4.875,-5.2325 l 0,-6.2075 q 0,-5.2325 4.875,-5.2325 l 2.9575,0 q 4.9075,0 4.9075,5.2325 l 0,4.1275 -10.3675,0 0,2.015 q 0,2.795 2.5025,2.795 l 7.41,0 0,2.5025 -7.41,0 z m 5.525,-11.505 q 0,-2.795 -2.535,-2.795 l -2.99,0 q -2.5025,0 -2.5025,2.795 l 0,2.0475 8.0275,0 0,-2.0475 z"
         style="font-style:normal;font-variant:normal;font-weight:normal;font-stretch:normal;font-size:32.5px;line-height:80.00000119%;font-family:'Forgotten Futurist';-inkscape-font-specification:'Forgotten Futurist';fill:#000000"
         id="path4184" />
      <path
         d="m 404.37744,225.66632 0,5.2 -2.4375,0 0,-21.8725 7.8,0 q 2.7625,0 3.8025,1.625 1.0725,1.5925 1.0725,4.81 l 0,5.005 q 0,5.2325 -4.875,5.2325 l -5.3625,0 z m 7.8,-10.725 q 0,-1.6575 -0.5525,-2.535 -0.52,-0.8775 -1.95,-0.8775 l -5.2975,0 0,11.635 5.2975,0 q 2.5025,0 2.5025,-2.795 l 0,-5.4275 z"
         style="font-style:normal;font-variant:normal;font-weight:normal;font-stretch:normal;font-size:32.5px;line-height:80.00000119%;font-family:'Forgotten Futurist';-inkscape-font-specification:'Forgotten Futurist';fill:#000000"
         id="path4186" />
      <path
         d="m 417.78115,206.78382 0,-3.9 2.47,0 0,3.9 -2.47,0 z m 0,18.8825 0,-16.6725 2.47,0 0,16.6725 -2.47,0 z"
         style="font-style:normal;font-variant:normal;font-weight:normal;font-stretch:normal;font-size:32.5px;line-height:80.00000119%;font-family:'Forgotten Futurist';-inkscape-font-specification:'Forgotten Futurist';fill:#000000"
         id="path4188" />
      <path
         d="m 426.18545,230.83382 0,-2.3075 5.135,0 q 2.405,0 2.405,-2.9575 l 0,-1.365 -5.4275,0 q -4.875,0 -4.875,-5.1025 l 0,-4.875 q 0,-5.2325 4.875,-5.2325 l 7.8975,0 0,16.4775 q 0,5.3625 -4.6475,5.3625 l -5.3625,0 z m 7.54,-19.305 -5.33,0 q -2.535,0 -2.535,2.795 l 0,4.875 q 0,2.73 2.535,2.73 l 5.33,0 0,-10.4 z"
         style="font-style:normal;font-variant:normal;font-weight:normal;font-stretch:normal;font-size:32.5px;line-height:80.00000119%;font-family:'Forgotten Futurist';-inkscape-font-specification:'Forgotten Futurist';fill:#000000"
         id="path4190" />
      <path
         d="m 444.04014,225.66632 q -4.875,0 -4.875,-5.2325 l 0,-6.2075 q 0,-5.2325 4.875,-5.2325 l 2.9575,0 q 4.9075,0 4.9075,5.2325 l 0,4.1275 -10.3675,0 0,2.015 q 0,2.795 2.5025,2.795 l 7.41,0 0,2.5025 -7.41,0 z m 5.525,-11.505 q 0,-2.795 -2.535,-2.795 l -2.99,0 q -2.5025,0 -2.5025,2.795 l 0,2.0475 8.0275,0 0,-2.0475 z"
         style="font-style:normal;font-variant:normal;font-weight:normal;font-stretch:normal;font-size:32.5px;line-height:80.00000119%;font-family:'Forgotten Futurist';-inkscape-font-specification:'Forgotten Futurist';fill:#000000"
         id="path4192" />
      <path
         d="m 465.73287,225.66632 0,-11.4075 q 0,-2.73 -1.95,-2.73 l -4.1275,0 q -1.2675,0 -1.7875,0.6825 -0.4875,0.65 -0.4875,2.08 l 0,11.375 -2.4375,0 0,-16.6725 2.34,0 0,2.0475 q 0.455,-1.1375 1.235,-1.5925 0.8125,-0.455 2.21,-0.455 l 3.6725,0 q 3.7375,0 3.7375,5.1025 l 0,11.57 -2.405,0 z"
         style="font-style:normal;font-variant:normal;font-weight:normal;font-stretch:normal;font-size:32.5px;line-height:80.00000119%;font-family:'Forgotten Futurist';-inkscape-font-specification:'Forgotten Futurist';fill:#000000"
         id="path4194" />
      <path
         d="m 476.48885,225.66632 q -1.625,0 -2.665,-0.2925 -1.04,-0.2925 -1.6575,-0.9425 -0.6175,-0.65 -0.845,-1.7225 -0.2275,-1.105 -0.2275,-2.6975 l 0,-5.3625 q 0,-1.6575 0.26,-2.7625 0.26,-1.105 0.8775,-1.7225 0.65,-0.65 1.69,-0.91 1.04,-0.26 2.5675,-0.26 l 2.34,0 q 1.5925,0 2.6325,0.2925 1.0725,0.2925 1.6575,0.975 0.6175,0.65 0.845,1.7225 0.26,1.0725 0.26,2.665 l 0,5.3625 q 0,2.86 -0.975,4.2575 -0.9425,1.3975 -3.4775,1.3975 l -3.2825,0 z m 5.2975,-11.44 q 0,-1.3 -0.4875,-1.9825 -0.4875,-0.715 -1.625,-0.715 l -4.0625,0 q -2.08,0 -2.08,2.3075 l 0,6.63 q 0,1.2675 0.455,1.9825 0.4875,0.715 1.625,0.715 l 4.0625,0 q 2.1125,0 2.1125,-2.3075 l 0,-6.63 z"
         style="font-style:normal;font-variant:normal;font-weight:normal;font-stretch:normal;font-size:32.5px;line-height:80.00000119%;font-family:'Forgotten Futurist';-inkscape-font-specification:'Forgotten Futurist';fill:#000000"
         id="path4196" />
      <path
         d="m 505.87494,225.66632 0,-11.4075 q 0,-2.73 -1.95,-2.73 l -2.925,0 q -0.9425,0 -1.495,0.65 -0.52,0.6175 -0.52,2.08 l 0,11.4075 -2.405,0 0,-11.4075 q 0,-1.4625 -0.52,-2.08 -0.52,-0.65 -1.4625,-0.65 l -2.6325,0 q -1.2675,0 -1.7875,0.6825 -0.4875,0.65 -0.4875,2.08 l 0,11.375 -2.4375,0 0,-16.6725 2.34,0 0,2.0475 q 0.455,-1.1375 1.235,-1.5925 0.8125,-0.455 2.21,-0.455 l 2.21,0 q 1.235,0 2.0475,0.6175 0.8125,0.585 1.17,1.82 0.4225,-1.365 1.3325,-1.885 0.9425,-0.5525 2.3075,-0.5525 l 2.4375,0 q 3.77,0 3.77,5.1025 l 0,11.57 -2.4375,0 z"
         style="font-style:normal;font-variant:normal;font-weight:normal;font-stretch:normal;font-size:32.5px;line-height:80.00000119%;font-family:'Forgotten Futurist';-inkscape-font-specification:'Forgotten Futurist';fill:#000000"
         id="path4198" />
      <path
         d="m 516.14951,225.66632 q -4.875,0 -4.875,-5.2325 l 0,-6.2075 q 0,-5.2325 4.875,-5.2325 l 2.9575,0 q 4.9075,0 4.9075,5.2325 l 0,4.1275 -10.3675,0 0,2.015 q 0,2.795 2.5025,2.795 l 7.41,0 0,2.5025 -7.41,0 z m 5.525,-11.505 q 0,-2.795 -2.535,-2.795 l -2.99,0 q -2.5025,0 -2.5025,2.795 l 0,2.0475 8.0275,0 0,-2.0475 z"
         style="font-style:normal;font-variant:normal;font-weight:normal;font-stretch:normal;font-size:32.5px;line-height:80.00000119%;font-family:'Forgotten Futurist';-inkscape-font-specification:'Forgotten Futurist';fill:#000000"
         id="path4200" />
    </g>
    <g
       style="color:#000000;font-style:normal;font-variant:normal;font-weight:normal;font-stretch:normal;font-size:35px;line-height:80.00000119%;font-family:Arial;-inkscape-font-specification:'Arial, Normal';text-indent:0;text-align:center;text-decoration:none;text-decoration-line:none;text-decoration-style:solid;text-decoration-color:#000000;letter-spacing:0px;word-spacing:0px;text-transform:none;direction:ltr;block-progression:tb;writing-mode:lr-tb;baseline-shift:baseline;text-anchor:middle;white-space:normal;clip-rule:nonzero;display:inline;overflow:visible;visibility:visible;opacity:1;isolation:auto;mix-blend-mode:normal;color-interpolation:sRGB;color-interpolation-filters:linearRGB;solid-color:#000000;solid-opacity:1;fill:#003380;fill-opacity:1;fill-rule:nonzero;stroke:none;stroke-width:1px;stroke-linecap:butt;stroke-linejoin:miter;stroke-miterlimit:4;stroke-dasharray:none;stroke-dashoffset:0;stroke-opacity:1;marker:none;color-rendering:auto;image-rendering:auto;shape-rendering:auto;text-rendering:auto;enable-background:accumulate"
       id="text4603">
      <path
         d="m 372.02605,252.65222 0,-2.695 9.03,0 q 2.205,0 2.205,-2.065 l 0,-1.26 q 0,-0.98 -0.595,-1.47 -0.595,-0.525 -1.61,-0.525 l -4.55,0 q -2.345,0 -3.64,-0.91 -1.26,-0.91 -1.26,-3.29 l 0,-0.805 q 0,-1.435 0.315,-2.38 0.315,-0.945 0.945,-1.505 0.665,-0.595 1.645,-0.805 1.015,-0.245 2.38,-0.245 l 8.05,0 0,2.73 -8.75,0 q -1.015,0 -1.575,0.525 -0.525,0.525 -0.525,1.645 l 0,0.56 q 0,1.05 0.595,1.68 0.595,0.63 1.82,0.63 l 4.655,0 q 2.135,0 3.36,0.875 1.26,0.875 1.26,3.08 l 0,1.155 q 0,2.555 -1.085,3.815 -1.05,1.26 -3.57,1.26 l -9.1,0 z"
         style="font-style:normal;font-variant:normal;font-weight:normal;font-stretch:normal;font-size:35px;line-height:80.00000119%;font-family:'Forgotten Futurist';-inkscape-font-specification:'Forgotten Futurist';fill:#003380"
         id="path4203" />
      <path
         d="m 402.74073,252.65222 -3.71,-14 -3.71,14 -2.52,0 -5.145,-17.955 2.73,0 3.78,14.245 3.745,-14.245 2.45,0 3.78,14.245 3.78,-14.245 2.625,0 -5.145,17.955 -2.66,0 z"
         style="font-style:normal;font-variant:normal;font-weight:normal;font-stretch:normal;font-size:35px;line-height:80.00000119%;font-family:'Forgotten Futurist';-inkscape-font-specification:'Forgotten Futurist';fill:#003380"
         id="path4205" />
      <path
         d="m 412.97987,232.31722 0,-4.2 2.66,0 0,4.2 -2.66,0 z m 0,20.335 0,-17.955 2.66,0 0,17.955 -2.66,0 z"
         style="font-style:normal;font-variant:normal;font-weight:normal;font-stretch:normal;font-size:35px;line-height:80.00000119%;font-family:'Forgotten Futurist';-inkscape-font-specification:'Forgotten Futurist';fill:#003380"
         id="path4207" />
      <path
         d="m 424.13066,252.65222 q -5.005,0 -5.005,-5.74 l 0,-18.34 2.66,0 0,6.125 4.515,0 0,2.31 -4.515,0 0,10.01 q 0,3.15 2.59,3.15 l 1.855,0 0,2.485 -2.1,0 z"
         style="font-style:normal;font-variant:normal;font-weight:normal;font-stretch:normal;font-size:35px;line-height:80.00000119%;font-family:'Forgotten Futurist';-inkscape-font-specification:'Forgotten Futurist';fill:#003380"
         id="path4209" />
      <path
         d="m 434.42284,252.65222 q -5.25,0 -5.25,-5.635 l 0,-6.51 q 0,-5.81 5.25,-5.81 l 6.3,0 0,2.73 -6.23,0 q -2.695,0 -2.695,3.185 l 0,6.335 q 0,3.01 2.695,3.01 l 6.3,0 0,2.695 -6.37,0 z"
         style="font-style:normal;font-variant:normal;font-weight:normal;font-stretch:normal;font-size:35px;line-height:80.00000119%;font-family:'Forgotten Futurist';-inkscape-font-specification:'Forgotten Futurist';fill:#003380"
         id="path4211" />
      <path
         d="m 455.59511,252.65222 0,-12.285 q 0,-2.94 -2.1,-2.94 l -4.375,0 q -1.365,0 -1.925,0.735 -0.525,0.7 -0.525,2.24 l 0,12.25 -2.625,0 0,-24.535 2.625,0 0,8.785 q 0.49,-1.225 1.33,-1.715 0.84,-0.49 2.38,-0.49 l 3.78,0 q 4.06,0 4.06,5.495 l 0,12.46 -2.625,0 z"
         style="font-style:normal;font-variant:normal;font-weight:normal;font-stretch:normal;font-size:35px;line-height:80.00000119%;font-family:'Forgotten Futurist';-inkscape-font-specification:'Forgotten Futurist';fill:#003380"
         id="path4213" />
      <path
         d="m 461.54511,252.65222 0,-24.535 2.625,0 0,6.58 5.81,0 q 5.25,0 5.25,5.635 l 0,6.685 q 0,5.635 -5.25,5.635 l -8.435,0 z m 11.06,-12.215 q 0,-3.01 -2.73,-3.01 l -5.705,0 0,12.53 5.705,0 q 2.73,0 2.73,-3.01 l 0,-6.51 z"
         style="font-style:normal;font-variant:normal;font-weight:normal;font-stretch:normal;font-size:35px;line-height:80.00000119%;font-family:'Forgotten Futurist';-inkscape-font-specification:'Forgotten Futurist';fill:#003380"
         id="path4215" />
      <path
         d="m 484.13323,252.65222 q -1.75,0 -2.87,-0.315 -1.12,-0.315 -1.785,-1.015 -0.665,-0.7 -0.91,-1.855 -0.245,-1.19 -0.245,-2.905 l 0,-5.775 q 0,-1.785 0.28,-2.975 0.28,-1.19 0.945,-1.855 0.7,-0.7 1.82,-0.98 1.12,-0.28 2.765,-0.28 l 2.52,0 q 1.715,0 2.835,0.315 1.155,0.315 1.785,1.05 0.665,0.7 0.91,1.855 0.28,1.155 0.28,2.87 l 0,5.775 q 0,3.08 -1.05,4.585 -1.015,1.505 -3.745,1.505 l -3.535,0 z m 5.705,-12.32 q 0,-1.4 -0.525,-2.135 -0.525,-0.77 -1.75,-0.77 l -4.375,0 q -2.24,0 -2.24,2.485 l 0,7.14 q 0,1.365 0.49,2.135 0.525,0.77 1.75,0.77 l 4.375,0 q 2.275,0 2.275,-2.485 l 0,-7.14 z"
         style="font-style:normal;font-variant:normal;font-weight:normal;font-stretch:normal;font-size:35px;line-height:80.00000119%;font-family:'Forgotten Futurist';-inkscape-font-specification:'Forgotten Futurist';fill:#003380"
         id="path4217" />
      <path
         d="m 499.6448,252.65222 q -2.205,0 -3.255,-1.05 -1.015,-1.085 -1.015,-3.185 l 0,-2.625 q 0,-3.99 4.27,-3.99 l 6.965,0 0,-1.365 q 0,-3.01 -2.695,-3.01 l -7.525,0 0,-2.73 7.525,0 q 5.25,0 5.25,5.635 l 0,12.32 -9.52,0 z m 6.965,-8.54 -6.755,0 q -2.03,0 -2.03,2.135 l 0,1.82 q 0,2.065 2.03,2.065 l 6.755,0 0,-6.02 z"
         style="font-style:normal;font-variant:normal;font-weight:normal;font-stretch:normal;font-size:35px;line-height:80.00000119%;font-family:'Forgotten Futurist';-inkscape-font-specification:'Forgotten Futurist';fill:#003380"
         id="path4219" />
      <path
         d="m 512.47284,252.65222 0,-17.955 2.52,0 0,2.205 q 0.49,-1.225 1.33,-1.715 0.875,-0.49 2.38,-0.49 l 3.675,0 0,2.73 -4.83,0 q -1.365,0 -1.925,0.735 -0.525,0.7 -0.525,2.24 l 0,12.25 -2.625,0 z"
         style="font-style:normal;font-variant:normal;font-weight:normal;font-stretch:normal;font-size:35px;line-height:80.00000119%;font-family:'Forgotten Futurist';-inkscape-font-specification:'Forgotten Futurist';fill:#003380"
         id="path4221" />
      <path
         d="m 529.64745,252.65222 q -5.25,0 -5.25,-5.635 l 0,-6.685 q 0,-5.635 5.25,-5.635 l 5.775,0 0,-6.58 2.66,0 0,24.535 -8.435,0 z m 5.775,-15.225 -5.67,0 q -2.73,0 -2.73,3.01 l 0,6.51 q 0,3.01 2.73,3.01 l 5.67,0 0,-12.53 z"
         style="font-style:normal;font-variant:normal;font-weight:normal;font-stretch:normal;font-size:35px;line-height:80.00000119%;font-family:'Forgotten Futurist';-inkscape-font-specification:'Forgotten Futurist';fill:#003380"
         id="path4223" />
    </g>
    <path
       sodipodi:type="star"
       style="color:#000000;clip-rule:nonzero;display:inline;overflow:visible;visibility:visible;opacity:1;isolation:auto;mix-blend-mode:normal;color-interpolation:sRGB;color-interpolation-filters:linearRGB;solid-color:#000000;solid-opacity:1;fill:#2c5aa0;fill-opacity:1;fill-rule:nonzero;stroke:#000000;stroke-width:1.73344314;stroke-linecap:butt;stroke-linejoin:miter;stroke-miterlimit:4;stroke-dasharray:none;stroke-dashoffset:0;stroke-opacity:1;marker:none;color-rendering:auto;image-rendering:auto;shape-rendering:auto;text-rendering:auto;enable-background:accumulate"
       id="path4611"
       sodipodi:sides="6"
       sodipodi:cx="133.17792"
       sodipodi:cy="430.40817"
       sodipodi:r1="27.925844"
       sodipodi:r2="24.184488"
       sodipodi:arg1="1.0471976"
       sodipodi:arg2="1.5707963"
       inkscape:flatsided="true"
       inkscape:rounded="-3.46945e-18"
       inkscape:randomized="0"
       d="m 147.14084,454.59266 -27.92585,0 -13.96292,-24.18449 13.96293,-24.18449 27.92584,0 13.96292,24.18449 z"
       transform="matrix(0.49959838,0.28844327,0.28844327,-0.49959838,146.56432,393.402)" />
    <path
       d="m 190.75858,429.70347 -27.92585,0 -13.96292,-24.18449 13.96292,-24.18449 27.92585,0 13.96292,24.18449 z"
       inkscape:randomized="0"
       inkscape:rounded="-3.46945e-18"
       inkscape:flatsided="true"
       sodipodi:arg2="1.5707963"
       sodipodi:arg1="1.0471976"
       sodipodi:r2="24.184488"
       sodipodi:r1="27.925844"
       sodipodi:cy="405.51898"
       sodipodi:cx="176.79565"
       sodipodi:sides="6"
       id="path4613"
       style="color:#000000;clip-rule:nonzero;display:inline;overflow:visible;visibility:visible;opacity:1;isolation:auto;mix-blend-mode:normal;color-interpolation:sRGB;color-interpolation-filters:linearRGB;solid-color:#000000;solid-opacity:1;fill:#003380;fill-opacity:1;fill-rule:nonzero;stroke:#000000;stroke-width:1.73344314;stroke-linecap:butt;stroke-linejoin:miter;stroke-miterlimit:4;stroke-dasharray:none;stroke-dashoffset:0;stroke-opacity:1;marker:none;color-rendering:auto;image-rendering:auto;shape-rendering:auto;text-rendering:auto;enable-background:accumulate"
       sodipodi:type="star"
       transform="matrix(0.49959838,0.28844327,0.28844327,-0.49959838,147.17316,394.44433)" />
    <path
       sodipodi:type="star"
       style="color:#000000;clip-rule:nonzero;display:inline;overflow:visible;visibility:visible;opacity:1;isolation:auto;mix-blend-mode:normal;color-interpolation:sRGB;color-interpolation-filters:linearRGB;solid-color:#000000;solid-opacity:1;fill:#216778;fill-opacity:1;fill-rule:nonzero;stroke:#000000;stroke-width:1.73344314;stroke-linecap:butt;stroke-linejoin:miter;stroke-miterlimit:4;stroke-dasharray:none;stroke-dashoffset:0;stroke-opacity:1;marker:none;color-rendering:auto;image-rendering:auto;shape-rendering:auto;text-rendering:auto;enable-background:accumulate"
       id="path4615"
       sodipodi:sides="6"
       sodipodi:cx="176.79565"
       sodipodi:cy="456.07895"
       sodipodi:r1="27.925844"
       sodipodi:r2="24.184488"
       sodipodi:arg1="1.0471976"
       sodipodi:arg2="1.5707963"
       inkscape:flatsided="true"
       inkscape:rounded="-3.46945e-18"
       inkscape:randomized="0"
       d="m 190.75858,480.26344 -27.92585,0 -13.96292,-24.18449 13.96292,-24.18449 27.92585,0 13.96292,24.18449 z"
       transform="matrix(0.49959838,0.28844327,0.28844327,-0.49959838,147.78082,393.39184)" />
    <path
       style="color:#000000;font-style:normal;font-variant:normal;font-weight:normal;font-stretch:normal;font-size:medium;line-height:normal;font-family:sans-serif;text-indent:0;text-align:start;text-decoration:none;text-decoration-line:none;text-decoration-style:solid;text-decoration-color:#000000;letter-spacing:normal;word-spacing:normal;text-transform:none;direction:ltr;block-progression:tb;writing-mode:lr-tb;baseline-shift:baseline;text-anchor:start;white-space:normal;clip-rule:nonzero;display:inline;overflow:visible;visibility:visible;opacity:1;isolation:auto;mix-blend-mode:normal;color-interpolation:sRGB;color-interpolation-filters:linearRGB;solid-color:#000000;solid-opacity:1;fill:#ffeeaa;fill-opacity:1;fill-rule:evenodd;stroke:#000000;stroke-width:1;stroke-linecap:butt;stroke-linejoin:round;stroke-miterlimit:4;stroke-dasharray:none;stroke-dashoffset:0;stroke-opacity:1;color-rendering:auto;image-rendering:auto;shape-rendering:auto;text-rendering:auto;enable-background:accumulate"
       d="m 46.945312,13.644531 c -2.836902,7.2e-5 -5.136647,2.299817 -5.136718,5.136719 0.0021,1.26693 0.63016,2.64623 1.478148,3.587524 L 33.083984,36.413225 c 0,0 -0.328309,0.560738 -1.330078,0.560738 -1.027093,-0.0036 -1.380859,-0.570503 -1.380859,-0.570503 L 20.121461,22.698852 c 0.891306,-0.950019 1.546221,-2.361023 1.548461,-3.663696 -7.2e-5,-2.836902 -2.299817,-5.136647 -5.136719,-5.136718 -2.836902,7.1e-5 -5.136647,2.299816 -5.136719,5.136718 7.1e-5,2.836902 2.299817,5.136648 5.136719,5.136719 0.384704,-0.002 0.925803,-0.0472 1.300414,-0.134766 L 27.84375,41.767578 c -0.790606,0.928043 -1.225369,2.107025 -1.226562,3.326172 7.1e-5,2.836902 2.299816,5.136647 5.136718,5.136719 2.836902,-7.1e-5 5.136648,-2.299817 5.136719,-5.136719 -0.002,-1.23548 -0.449285,-2.428839 -1.259766,-3.361328 l 9.880909,-18.067358 c 0.406695,0.103352 1.013926,0.251185 1.433544,0.252905 2.836902,-7.1e-5 5.136648,-2.299817 5.136719,-5.136719 -7.1e-5,-2.836902 -2.299817,-5.136648 -5.136719,-5.136719 z"
       transform="translate(320.7151,197.74976)"
       id="path4170"
       inkscape:connector-curvature="0"
       sodipodi:nodetypes="ccccccccccccccccccccc" />
  </g>
</svg>
